<?xml version="1.0" standalone="no"?>
<!DOCTYPE svg PUBLIC "-//W3C//DTD SVG 1.1//EN" "http://www.w3.org/Graphics/SVG/1.1/DTD/svg11.dtd" >
<svg xmlns="http://www.w3.org/2000/svg" xmlns:xlink="http://www.w3.org/1999/xlink" version="1.1">
<metadata></metadata>
<defs>
<font id="bauhaus_lt_btlight" horiz-adv-x="1024" >
<font-face units-per-em="2048" ascent="1638" descent="-410" />
<missing-glyph horiz-adv-x="547" />
<glyph horiz-adv-x="0" />
<glyph unicode="&#xd;" horiz-adv-x="547" />
<glyph unicode=" "  horiz-adv-x="547" />
<glyph unicode="&#x09;" horiz-adv-x="547" />
<glyph unicode="&#xa0;" horiz-adv-x="547" />
<glyph unicode="!" horiz-adv-x="547" d="M197 68q0 32 22.5 53.5t54.5 21.5q33 0 54.5 -21.5t21.5 -53.5q0 -33 -22 -55.5t-54 -22.5t-54.5 22.5t-22.5 55.5zM231 287v1169h84v-1169h-84z" />
<glyph unicode="&#x22;" horiz-adv-x="551" d="M100 881v553h86v-553h-86zM365 881v553h86v-553h-86z" />
<glyph unicode="#" horiz-adv-x="1575" d="M129 494l31 90h336l100 282h-360l28 90h365l176 498h110l-174 -498h271l176 498h110l-174 -498h322l-31 -90h-323l-101 -282h348l-30 -90h-351l-174 -494h-112l176 494h-270l-179 -494h-110l174 494h-334zM610 584h269l100 282h-270z" />
<glyph unicode="$" horiz-adv-x="1096" d="M170 156v75h354v519q-183 48 -268.5 127.5t-85.5 201.5q0 133 95 212.5t259 82.5v113h72v-113h307v-76h-307v-483q196 -60 286.5 -146.5t90.5 -213.5q0 -143 -96.5 -221t-274.5 -78h-6v-213h-72v213h-354zM248 1087q0 -88 69.5 -151.5t206.5 -99.5v462h-12 q-124 0 -194 -56t-70 -155zM596 231h18q130 0 204.5 59t74.5 161q0 97 -70 162t-227 112v-494z" />
<glyph unicode="%" horiz-adv-x="1671" d="M98 1147q0 127 91 218t219 91q127 0 217 -90.5t90 -218.5t-89.5 -217.5t-217.5 -89.5q-129 0 -219.5 89.5t-90.5 217.5zM182 1147q0 -94 66.5 -160.5t159.5 -66.5t158 66t65 161t-65 161t-158 66q-94 0 -160 -66.5t-66 -160.5zM317 -25l949 1467h84l-944 -1467h-89z M952 307q0 128 90 218.5t218 90.5q127 0 218 -90.5t91 -218.5q0 -127 -90.5 -217t-218.5 -90q-129 0 -218.5 89.5t-89.5 217.5zM1034 307q0 -93 66.5 -160t159.5 -67t159 66t66 161t-66 161.5t-159 66.5q-94 0 -160 -67t-66 -161z" />
<glyph unicode="&#x26;" horiz-adv-x="1374" d="M106 565q0 145 63 264t187 211l-55 72q-26 34 -38.5 66t-12.5 63q0 84 65 137.5t170 53.5h559v-76h-550q-74 0 -114 -30t-40 -85q0 -30 14 -60t54 -77l700 -832q45 67 67.5 140.5t22.5 154.5q0 123 -46 220.5t-140 177.5l49 59q112 -90 167.5 -204.5t55.5 -254.5 q0 -94 -29.5 -183t-89.5 -173l178 -209h-106l-125 150q-91 -87 -193.5 -128.5t-222.5 -41.5q-125 0 -231 41.5t-184 121.5q-85 86 -130 195t-45 227zM193 573q0 -69 17.5 -136t51.5 -126q71 -120 184 -186t248 -66q102 0 190 38t173 118l-649 768q-110 -89 -162.5 -189.5 t-52.5 -220.5z" />
<glyph unicode="'" horiz-adv-x="285" d="M100 881v553h86v-553h-86z" />
<glyph unicode="(" horiz-adv-x="793" d="M223 535q0 251 110 482t333 447l45 -47q-207 -213 -306.5 -429t-99.5 -451q0 -246 103 -465.5t303 -397.5l-39 -53q-220 184 -334.5 418t-114.5 496z" />
<glyph unicode=")" horiz-adv-x="793" d="M80 -326q200 179 303.5 398.5t103.5 464.5q0 235 -99.5 451t-305.5 429l45 47q223 -216 332.5 -447t109.5 -482q0 -262 -114.5 -496t-333.5 -418z" />
<glyph unicode="*" horiz-adv-x="1010" d="M168 934l278 151l-278 156l35 62l276 -168l-10 321h72l-11 -321l277 168l35 -62l-283 -151l283 -156l-35 -64l-275 168l9 -319h-72l8 319l-274 -166z" />
<glyph unicode="+" horiz-adv-x="1706" d="M254 569v82h559v570h80v-570h559v-82h-559v-569h-80v569h-559z" />
<glyph unicode="," horiz-adv-x="547" d="M135 -168l92 324h115l-115 -324h-92z" />
<glyph unicode="-" horiz-adv-x="676" d="M141 455v82h394v-82h-394z" />
<glyph unicode="." horiz-adv-x="547" d="M197 68q0 32 22.5 53.5t54.5 21.5q33 0 54.5 -21.5t21.5 -53.5q0 -33 -22 -55.5t-54 -22.5t-54.5 22.5t-22.5 55.5z" />
<glyph unicode="/" horiz-adv-x="557" d="M-23 -190l545 1646h90l-544 -1646h-91z" />
<glyph unicode="0" horiz-adv-x="1096" d="M78 451v530q0 203 134 339t335 136t336 -136t135 -339v-530q0 -204 -135 -340t-336 -136t-335 136t-134 340zM168 444q0 -166 108.5 -276.5t270.5 -110.5q163 0 272 111t109 276v543q0 167 -109.5 278t-271.5 111t-270.5 -111t-108.5 -278v-543z" />
<glyph unicode="1" horiz-adv-x="1096" d="M305 1360l23 72h303v-1432h-82v1360h-244z" />
<glyph unicode="2" horiz-adv-x="1096" d="M92 98q0 36 20.5 67t80.5 77l524 424q107 86 156 172t49 188q0 154 -102.5 253t-260.5 99q-159 0 -264 -101t-105 -253q0 -160 102.5 -254t289.5 -104l-78 -66q-189 29 -295.5 138t-106.5 272q0 194 129 320t328 126q195 0 323 -121.5t128 -306.5q0 -124 -60.5 -227 t-206.5 -221l-521 -426q-14 -12 -19.5 -21.5t-5.5 -19.5q0 -16 12 -24.5t33 -8.5h776v-80h-760q-97 0 -131.5 22t-34.5 76z" />
<glyph unicode="3" horiz-adv-x="1096" d="M125 0v80h410q182 0 278 88t96 254q0 156 -92.5 246t-253.5 90h-278v57l493 479q14 14 19.5 23t5.5 16q0 12 -10.5 17.5t-36.5 5.5h-615v76h637q60 0 90.5 -22t30.5 -64q0 -20 -8.5 -38t-24.5 -34l-454 -438h131q225 0 341.5 -105.5t116.5 -308.5q0 -200 -122.5 -311 t-343.5 -111h-410z" />
<glyph unicode="4" horiz-adv-x="1096" d="M51 489q0 20 8 41t27 52l532 874h99l-553 -911q-6 -11 -9 -20t-3 -17q0 -15 12 -21t47 -6h539v862l90 89v-951h235v-75h-235v-406h-90v406h-564q-75 0 -105 19t-30 64z" />
<glyph unicode="5" horiz-adv-x="1096" d="M135 0v80h385q182 0 279.5 88t97.5 252q0 155 -95 246.5t-257 91.5h-371v674h719v-76h-629v-520h266q219 0 340 -109.5t121 -304.5q0 -193 -123.5 -307.5t-332.5 -114.5h-400z" />
<glyph unicode="6" horiz-adv-x="1096" d="M61 487q0 94 34.5 185.5t121.5 220.5l365 539h98l-406 -607q-66 -100 -94 -177t-28 -156q0 -186 114.5 -308.5t286.5 -122.5q169 0 284 121t115 299q0 184 -108 296t-285 112q-35 0 -80 -8t-102 -25l63 92q38 8 71.5 12.5t63.5 4.5q207 0 337 -134t130 -344 q0 -215 -140.5 -360t-348.5 -145q-102 0 -189 35.5t-155 105.5q-72 74 -110 167t-38 197z" />
<glyph unicode="7" horiz-adv-x="1096" d="M59 1356v76h854q68 0 101 -23.5t33 -71.5q0 -17 -5 -36t-16 -41l-555 -1260h-94l567 1282q5 11 7.5 24t2.5 23q0 14 -10.5 20.5t-36.5 6.5h-848z" />
<glyph unicode="8" horiz-adv-x="1096" d="M78 410q0 152 82.5 257.5t240.5 155.5q-109 40 -168 118.5t-59 184.5q0 140 106.5 235t266.5 95t267.5 -95t107.5 -235q0 -106 -59 -184.5t-169 -118.5q158 -50 240 -155.5t82 -257.5q0 -87 -35.5 -167.5t-99.5 -140.5q-67 -61 -152.5 -94t-181.5 -33t-180.5 32.5 t-151.5 94.5q-65 61 -101 141.5t-36 166.5zM162 422q0 -152 111 -256.5t274 -104.5t274 104t111 257q0 149 -112 254.5t-273 105.5t-273 -105t-112 -255zM256 1120q0 -112 84.5 -190t206.5 -78t207.5 78.5t85.5 189.5q0 114 -83.5 189t-209.5 75t-208.5 -75t-82.5 -189z" />
<glyph unicode="9" horiz-adv-x="1096" d="M55 944q0 216 140 361t348 145q102 0 190 -36t156 -105q71 -73 108 -166t37 -199q0 -95 -34 -187.5t-119 -217.5l-365 -539h-98l403 606q67 101 95 178t28 156q0 186 -114.5 308t-286.5 122q-169 0 -283.5 -120.5t-114.5 -299.5q0 -184 107.5 -295.5t284.5 -111.5 q35 0 81.5 8t102.5 24l-64 -92q-38 -8 -71.5 -12t-63.5 -4q-206 0 -336.5 133.5t-130.5 343.5z" />
<glyph unicode=":" horiz-adv-x="598" d="M221 68q0 32 22.5 53.5t55.5 21.5q32 0 54 -21.5t22 -53.5q0 -33 -22 -55.5t-54 -22.5t-55 22.5t-23 55.5zM221 713q0 32 23 55t55 23t54 -23t22 -55q0 -33 -22 -54.5t-54 -21.5q-33 0 -55.5 22t-22.5 54z" />
<glyph unicode=";" horiz-adv-x="598" d="M168 -168l92 324h115l-115 -324h-92zM221 713q0 32 23 55t55 23t54 -23t22 -55q0 -33 -22 -54.5t-54 -21.5q-33 0 -55.5 22t-22.5 54z" />
<glyph unicode="&#x3c;" horiz-adv-x="1706" d="M264 580v61l1178 483v-90l-1045 -424l1045 -424v-88z" />
<glyph unicode="=" horiz-adv-x="1706" d="M254 387v82h1198v-82h-1198zM254 752v79h1198v-79h-1198z" />
<glyph unicode="&#x3e;" horiz-adv-x="1706" d="M264 98v88l1045 424l-1045 424v90l1178 -483v-61z" />
<glyph unicode="?" horiz-adv-x="963" d="M45 1057q17 184 129 291.5t287 107.5q180 0 296.5 -116.5t116.5 -297.5q0 -174 -106.5 -282.5t-302.5 -132.5v-359h-86v443h29q170 0 273 91.5t103 241.5q0 147 -90 238.5t-235 91.5q-138 0 -225 -83.5t-105 -233.5h-84zM344 68q0 32 22.5 53.5t55.5 21.5q32 0 54 -21.5 t22 -53.5q0 -33 -22 -55.5t-54 -22.5t-55 22.5t-23 55.5z" />
<glyph unicode="@" horiz-adv-x="2048" d="M121 522q0 162 50.5 307t147.5 265q144 175 345.5 265.5t449.5 90.5q160 0 304.5 -44t248.5 -124q128 -98 194 -226.5t66 -277.5q0 -169 -63 -308t-181 -232q-67 -54 -145.5 -82.5t-159.5 -28.5q-95 0 -143.5 36.5t-48.5 108.5q0 12 3 34q1 3 1 5q-49 -88 -125 -136 t-166 -48q-154 0 -233.5 83t-79.5 243q0 228 134.5 386t326.5 158q95 0 160 -43t96 -127l61 129h80l-137 -553q-10 -36 -15.5 -64.5t-5.5 -43.5q0 -44 30.5 -68t86.5 -24q48 0 100 19.5t103 56.5q101 74 162 207t61 282q0 273 -199.5 439.5t-525.5 166.5q-168 0 -310.5 -48 t-258.5 -144q-154 -128 -232 -297t-78 -375q0 -327 221.5 -522t591.5 -195q161 0 324 50.5t299 142.5l29 -45q-146 -110 -308.5 -165t-339.5 -55q-187 0 -343 46.5t-277 138.5q-152 115 -226.5 267.5t-74.5 348.5zM690 446q0 -115 57.5 -180t159.5 -65q111 0 196 72.5 t116 193.5l63 254q-22 99 -81.5 151t-151.5 52q-152 0 -255.5 -138t-103.5 -340z" />
<glyph unicode="A" horiz-adv-x="1204" d="M127 0v926q0 243 129.5 386.5t345.5 143.5q215 0 344 -143.5t129 -386.5v-926h-90v711h-696v80h696v104q0 233 -98 356t-285 123t-286 -123t-99 -356v-895h-90z" />
<glyph unicode="B" horiz-adv-x="1126" d="M127 0v924q0 261 114 397.5t332 136.5q179 0 299.5 -107.5t120.5 -263.5q0 -113 -63 -195t-185 -124q153 -37 237.5 -136.5t84.5 -240.5q0 -174 -124 -282.5t-325 -108.5h-329v80h319q170 0 267.5 83t97.5 228q0 161 -102 243.5t-302 82.5h-280v74h256q157 0 255.5 80.5 t98.5 207.5q0 133 -90.5 218t-230.5 85q-173 0 -267 -113.5t-94 -322.5v-946h-90z" />
<glyph unicode="C" horiz-adv-x="1012" d="M72 717q0 339 210 528t588 189q31 0 46 -0.5t28 -2.5v-79q-16 1 -33 1.5t-53 0.5q-327 0 -509.5 -168.5t-182.5 -468.5q0 -301 184 -470t514 -169q32 0 49.5 0.5t30.5 0.5v-79h-72q-378 0 -589 189.5t-211 527.5z" />
<glyph unicode="D" horiz-adv-x="1266" d="M141 0v1432h236q169 0 287 -25t202 -78q164 -101 246 -254t82 -358q0 -341 -212.5 -530t-598.5 -189q-35 0 -53 0.5t-33 2.5v79h5q60 -4 89 -4q337 0 523 168t186 471q0 135 -41.5 247.5t-122.5 198.5q-95 102 -222 147.5t-327 45.5h-156v-1354h-90z" />
<glyph unicode="E" d="M72 717q0 201 93 365t261 257q81 47 196.5 70t266.5 23h55v-80q-15 1 -32.5 1.5t-51.5 0.5q-306 0 -482.5 -146.5t-207.5 -425.5h774v-82h-776q17 -304 194.5 -463t499.5 -159q33 0 50 0.5t32 0.5v-79h-59q-149 0 -262.5 21.5t-190.5 64.5q-170 95 -265 261.5t-95 369.5z " />
<glyph unicode="F" horiz-adv-x="901" d="M133 0v977q0 228 115 341.5t346 113.5h217v-82h-240q-173 0 -260.5 -86.5t-87.5 -257.5v-248h588v-80h-588v-678h-90z" />
<glyph unicode="G" horiz-adv-x="1583" d="M72 717q0 148 54.5 283t158.5 241q102 105 237.5 160t292.5 55q156 0 288.5 -57t252.5 -174l-64 -58q-106 108 -222 159.5t-251 51.5q-95 0 -181.5 -23.5t-158.5 -68.5q-150 -94 -231.5 -242t-81.5 -325q0 -133 47 -251.5t137 -213.5q90 -93 204.5 -143t238.5 -50 q178 0 325 93.5t232 261.5q32 63 49 130t18 138h-614v82h710v-16q0 -114 -21 -208t-65 -175q-98 -185 -265.5 -288.5t-368.5 -103.5q-145 0 -277 56.5t-233 161.5q-103 105 -157 239.5t-54 284.5z" />
<glyph unicode="H" horiz-adv-x="1233" d="M141 0v1432h90v-641h768v641h91v-1432h-91v711h-768v-711h-90z" />
<glyph unicode="I" horiz-adv-x="389" d="M150 0v1432h90v-1432h-90z" />
<glyph unicode="J" horiz-adv-x="807" d="M-4 0v82h246q169 0 255.5 89t86.5 263v998h90v-977q0 -228 -115.5 -341.5t-347.5 -113.5h-215z" />
<glyph unicode="K" horiz-adv-x="1128" d="M141 0v1432h90v-646h220q136 0 218.5 62.5t147.5 216.5l156 367h96l-201 -461q-30 -70 -80.5 -120t-117.5 -77q184 -26 278 -145.5t94 -325.5v-303h-90v281q0 220 -94.5 326t-292.5 106h-334v-713h-90z" />
<glyph unicode="L" horiz-adv-x="834" d="M133 455v977h90v-998q0 -171 88 -261.5t254 -90.5h279v-82h-250q-232 0 -346.5 113t-114.5 342z" />
<glyph unicode="M" horiz-adv-x="1698" d="M55 0l174 1331q8 61 33 87t78 26q46 0 73.5 -23t41.5 -73l364 -1237q5 -15 11.5 -24t13.5 -9t13 8t11 24l365 1238q14 49 42 72.5t75 23.5q52 0 76.5 -26t31.5 -86l174 -1332h-90l-174 1336q-1 13 -7.5 22.5t-14.5 9.5q-10 0 -15.5 -6t-11.5 -29l-358 -1216 q-21 -70 -48 -99.5t-69 -29.5q-43 0 -70 29.5t-47 99.5l-358 1216q-6 23 -11.5 29t-15.5 6q-8 0 -14.5 -9.5t-7.5 -22.5l-175 -1336h-90z" />
<glyph unicode="N" horiz-adv-x="1255" d="M141 0v1315q0 59 31 94t84 35q41 0 71.5 -24t53.5 -74l590 -1266q5 -10 12 -15.5t14 -5.5q12 0 19.5 9.5t7.5 25.5v1338h90v-1328q0 -59 -31 -94t-84 -35q-41 0 -71 24t-54 75l-589 1267q-5 10 -12 15.5t-15 5.5q-11 0 -19 -10.5t-8 -26.5v-1325h-90z" />
<glyph unicode="O" horiz-adv-x="1583" d="M72 717q0 149 54 283t159 241q101 104 232 159.5t276 55.5q143 0 274.5 -56t232.5 -161q103 -106 157 -239.5t54 -282.5q0 -150 -54 -284.5t-157 -239.5q-101 -105 -232.5 -161.5t-274.5 -56.5q-145 0 -276 55.5t-232 159.5q-104 107 -158.5 242t-54.5 285zM166 719 q0 -133 47.5 -252t138.5 -215q88 -92 201.5 -141.5t239.5 -49.5q125 0 238 49.5t202 143.5q90 95 137 213.5t47 251.5t-46.5 251t-137.5 214q-89 93 -201.5 141.5t-238.5 48.5q-127 0 -240.5 -48.5t-200.5 -139.5q-91 -96 -138.5 -215t-47.5 -252z" />
<glyph unicode="P" horiz-adv-x="1057" d="M127 0v963q0 228 122 360.5t333 132.5q178 0 305 -128.5t127 -309.5q0 -95 -38 -179t-108 -147q-67 -60 -148 -86t-208 -26h-225v82h256q173 0 275 96t102 258q0 155 -98.5 255.5t-250.5 100.5q-170 0 -262 -110t-92 -316v-946h-90z" />
<glyph unicode="Q" horiz-adv-x="1583" d="M70 715q0 97 24.5 190.5t73.5 179.5q101 176 265 273.5t360 97.5q143 0 274.5 -56t232.5 -161q103 -106 157 -239.5t54 -282.5q0 -285 -175.5 -488.5t-461.5 -248.5v-291h-88v714h88v-335q241 36 392 218t151 433q0 133 -46.5 251t-137.5 214q-89 93 -201.5 141.5 t-238.5 48.5q-128 0 -241 -48.5t-202 -141.5q-88 -93 -136 -211.5t-48 -243.5q0 -261 153.5 -444.5t401.5 -218.5v-84q-289 38 -470 242.5t-181 490.5z" />
<glyph unicode="R" horiz-adv-x="1114" d="M131 0v924q0 261 113.5 397.5t330.5 136.5q179 0 300.5 -112t121.5 -277q0 -119 -64.5 -206.5t-184.5 -131.5q144 -40 211 -130.5t67 -248.5v-352h-90v319q0 193 -89 276t-298 83h-254v80h233q171 0 273 83.5t102 221.5q0 141 -90 229t-233 88q-173 0 -266 -109.5 t-93 -314.5v-956h-90z" />
<glyph unicode="S" horiz-adv-x="1071" d="M86 0v86h338q249 0 356 65t107 211q0 105 -62 172t-274 150l-92 37q-229 89 -301 171t-72 218q0 156 116 239t337 83h360v-78h-385q-164 0 -251 -61.5t-87 -176.5q0 -102 55.5 -164.5t235.5 -132.5l109 -43q12 -5 33 -13q188 -74 245 -122q67 -57 99 -124.5t32 -147.5 q0 -177 -118.5 -273t-338.5 -96h-442z" />
<glyph unicode="T" horiz-adv-x="977" d="M39 1350v82h899v-82h-406v-1350h-90v1350h-403z" />
<glyph unicode="U" horiz-adv-x="1204" d="M127 506v926h90v-891q0 -234 99 -357t286 -123t285 123t98 357v891h90v-926q0 -244 -129 -387.5t-344 -143.5q-216 0 -345.5 144t-129.5 387z" />
<glyph unicode="V" horiz-adv-x="1034" d="M-29 1432h90l420 -1329q7 -18 16 -27.5t19 -9.5t19 9t16 27l422 1330h90l-420 -1323q-24 -74 -52.5 -103t-74.5 -29q-45 0 -72.5 28t-52.5 104z" />
<glyph unicode="W" horiz-adv-x="1835" d="M133 444v988h90v-961q0 -199 83 -303.5t241 -104.5t241.5 105t83.5 303v961h91v-961q0 -198 83.5 -303t241.5 -105t241 104.5t83 303.5v961h90v-988q0 -211 -113.5 -337.5t-300.5 -126.5q-121 0 -216 59t-154 172q-60 -113 -155 -172t-216 -59q-187 0 -300.5 126.5 t-113.5 337.5z" />
<glyph unicode="X" horiz-adv-x="1233" d="M25 0v78q259 29 404.5 198.5t145.5 440.5q0 272 -145.5 440.5t-404.5 196.5v78q223 -20 371 -129.5t220 -307.5q75 199 222 308t370 129v-78q-261 -29 -406 -197t-145 -440q0 -271 146 -440.5t405 -198.5v-78q-223 20 -370.5 128t-221.5 306q-73 -198 -220.5 -306 t-370.5 -128z" />
<glyph unicode="Y" horiz-adv-x="1081" d="M115 1071v361h90v-336q0 -204 86.5 -312t249.5 -108t249.5 107.5t86.5 312.5v336h90v-361q0 -206 -99 -328.5t-282 -144.5v-598h-90v598q-185 25 -283 147t-98 326z" />
<glyph unicode="Z" horiz-adv-x="995" d="M43 102q0 26 11 53.5t36 63.5l750 1069q5 7 8.5 16t3.5 17q0 15 -13 23t-38 8h-666v80h670q66 0 100.5 -26.5t34.5 -78.5q0 -22 -8.5 -47.5t-24.5 -48.5l-755 -1075q-8 -11 -12.5 -22t-4.5 -19q0 -16 14 -24.5t39 -8.5h764v-82h-766q-69 0 -106 26.5t-37 75.5z" />
<glyph unicode="[" horiz-adv-x="561" d="M172 -375v1807h295v-58h-209v-1691h209v-58h-295z" />
<glyph unicode="\" horiz-adv-x="557" d="M-23 1456h91l544 -1646h-90z" />
<glyph unicode="]" horiz-adv-x="561" d="M94 -317h209v1691h-209v58h295v-1807h-295v58z" />
<glyph unicode="^" horiz-adv-x="2048" d="M424 901l539 557h118l541 -557h-125l-473 469l-475 -469h-125z" />
<glyph unicode="_" d="M0 -403h1024v-80h-1024v80z" />
<glyph unicode="`" d="M285 1432h133l215 -351h-80z" />
<glyph unicode="a" horiz-adv-x="1157" d="M66 483q0 218 137.5 360t347.5 142q131 0 240 -62t180 -178q35 -58 51 -134.5t16 -182.5v-428h-84v434q0 218 -108.5 346.5t-290.5 128.5q-171 0 -286 -121t-115 -303q0 -184 113.5 -304t287.5 -120q96 0 179 40.5t155 121.5v-110q-72 -66 -155.5 -98.5t-178.5 -32.5 q-105 0 -195 37.5t-157 109.5t-102 162.5t-35 191.5z" />
<glyph unicode="b" horiz-adv-x="1157" d="M119 539v893h82v-900q0 -217 109.5 -346t291.5 -129q171 0 286.5 121t115.5 303q0 184 -114 304t-288 120q-95 0 -178.5 -40t-155.5 -122v111q72 65 155.5 98t178.5 33q105 0 195 -37.5t157 -109.5q66 -71 101 -161.5t35 -193.5q0 -217 -137.5 -359t-346.5 -142 q-131 0 -240 62t-180 177q-34 58 -50.5 134.5t-16.5 183.5z" />
<glyph unicode="c" horiz-adv-x="782" d="M96 483q0 121 55 224t156 172q68 46 150 67t207 21h73v-76h-90q-206 0 -334.5 -113.5t-128.5 -294.5q0 -180 129 -293.5t334 -113.5h90v-76h-73q-262 0 -415 131t-153 352z" />
<glyph unicode="d" horiz-adv-x="1157" d="M66 483q0 102 35 192.5t102 162.5q68 72 157.5 109.5t194.5 37.5q93 0 177 -33t157 -98v-111q-72 82 -155 122t-179 40q-174 0 -287.5 -120t-113.5 -304q0 -182 115 -303t286 -121q182 0 290.5 128.5t108.5 346.5v900h84v-893q0 -107 -16 -183.5t-51 -134.5 q-71 -115 -180 -177t-240 -62q-210 0 -347.5 142t-137.5 359z" />
<glyph unicode="e" horiz-adv-x="1104" d="M66 483q0 102 37 193t108 164q70 71 159 108t191 37q131 0 235.5 -61t176.5 -181l-674 -450l-39 65l598 400q-55 75 -131 114t-168 39q-170 0 -287.5 -123.5t-117.5 -302.5q0 -178 116.5 -301t284.5 -123q165 0 276 113.5t123 296.5h88q-12 -215 -149 -352t-338 -137 q-98 0 -186.5 37t-157.5 108q-71 72 -108 163.5t-37 192.5z" />
<glyph unicode="f" horiz-adv-x="604" d="M131 0v1094q0 169 95.5 253.5t287.5 84.5h90v-78h-104q-149 0 -218 -64.5t-69 -204.5v-118h391v-80h-391v-887h-82z" />
<glyph unicode="g" horiz-adv-x="1157" d="M66 483q0 218 137.5 360t347.5 142q131 0 240 -62t180 -178q35 -58 51 -134.5t16 -182.5v-389q0 -229 -127.5 -362.5t-345.5 -133.5q-62 0 -134.5 14t-158.5 42l29 84q88 -29 152.5 -42.5t115.5 -13.5q179 0 282 110t103 302v395q0 218 -108.5 346.5t-290.5 128.5 q-171 0 -286 -121t-115 -303q0 -184 113.5 -304t287.5 -120q96 0 179 40.5t155 121.5v-110q-72 -66 -155.5 -98.5t-178.5 -32.5q-105 0 -195 37.5t-157 109.5t-102 162.5t-35 191.5z" />
<glyph unicode="h" horiz-adv-x="1038" d="M133 0v1432h82v-637q56 92 141.5 142t188.5 50q172 0 273.5 -115.5t101.5 -314.5v-557h-82v573q0 148 -82.5 241t-210.5 93q-144 0 -237 -107t-93 -274v-526h-82z" />
<glyph unicode="i" horiz-adv-x="350" d="M115 1239q0 25 17 42t42 17q26 0 44 -17t18 -42t-18 -43t-44 -18q-24 0 -41.5 18t-17.5 43zM133 0v967h84v-967h-84z" />
<glyph unicode="j" horiz-adv-x="352" d="M-207 -358h57q150 0 218.5 64t68.5 204v1057h82v-1065q0 -167 -93.5 -252.5t-275.5 -85.5h-57v78zM117 1239q0 25 17.5 42t43.5 17t43 -17t17 -42q0 -26 -17.5 -43.5t-42.5 -17.5q-24 0 -42.5 18t-18.5 43z" />
<glyph unicode="k" horiz-adv-x="903" d="M133 0v1432h84v-865h94q90 0 149.5 35.5t129.5 138.5l155 226h95l-158 -244q-39 -61 -75 -100t-75 -62q138 -18 208.5 -95.5t70.5 -209.5v-256h-82v227q0 131 -62 198t-184 67h-266v-492h-84z" />
<glyph unicode="l" horiz-adv-x="350" d="M133 0v1432h84v-1432h-84z" />
<glyph unicode="m" horiz-adv-x="1569" d="M121 0v592q0 183 95.5 288t260.5 105q100 0 176.5 -47t130.5 -141q57 95 133 141.5t175 46.5q165 0 261.5 -105t96.5 -288v-592h-84v618q0 130 -75.5 210.5t-194.5 80.5q-121 0 -196 -80.5t-75 -210.5v-618h-82v618q0 130 -75 210.5t-195 80.5q-119 0 -194.5 -80.5 t-75.5 -210.5v-618h-82z" />
<glyph unicode="n" d="M119 0v547q0 201 107 319.5t286 118.5t286 -118.5t107 -319.5v-547h-82v573q0 150 -86.5 243t-224.5 93t-224.5 -93t-86.5 -243v-573h-82z" />
<glyph unicode="o" horiz-adv-x="1110" d="M66 483q0 101 37 191.5t108 165.5q69 70 157.5 107.5t186.5 37.5t186.5 -37.5t157.5 -107.5q70 -72 106.5 -163t36.5 -194q0 -102 -36.5 -193t-106.5 -163q-69 -71 -157.5 -108t-186.5 -37t-186.5 37t-157.5 108q-71 74 -108 165t-37 191zM154 485q0 -178 116.5 -301 t284.5 -123q167 0 283 123.5t116 300.5q0 179 -116 301.5t-283 122.5q-168 0 -284.5 -123t-116.5 -301z" />
<glyph unicode="p" horiz-adv-x="1157" d="M119 428q0 106 16.5 182.5t50.5 134.5q71 116 180 178t240 62q209 0 346.5 -142t137.5 -360q0 -102 -35 -192.5t-101 -161.5q-67 -72 -157 -109.5t-195 -37.5q-95 0 -178.5 32.5t-155.5 98.5v110q72 -81 155.5 -121.5t178.5 -40.5q174 0 288 120t114 304 q0 182 -115.5 303t-286.5 121q-182 0 -291.5 -128.5t-109.5 -346.5v-870h-82v864z" />
<glyph unicode="q" horiz-adv-x="1157" d="M66 483q0 218 137.5 360t347.5 142q131 0 240 -62t180 -178q35 -58 51 -134.5t16 -182.5v-864h-84v870q0 218 -108.5 346.5t-290.5 128.5q-171 0 -286 -121t-115 -303q0 -184 113.5 -304t287.5 -120q96 0 179 40.5t155 121.5v-110q-72 -66 -155.5 -98.5t-178.5 -32.5 q-105 0 -195 37.5t-157 109.5t-102 162.5t-35 191.5z" />
<glyph unicode="r" horiz-adv-x="602" d="M133 0v967h82v-189q58 96 143.5 144.5t194.5 48.5q10 0 23 -1t34 -4v-81h-6q-47 4 -63 4q-142 0 -234 -106t-92 -271v-512h-82z" />
<glyph unicode="s" horiz-adv-x="877" d="M70 0v80h419q110 0 171 43t61 119q0 73 -52.5 121t-168.5 79l-187 52q-123 34 -182 94.5t-59 152.5q0 109 79 167.5t226 58.5h356v-78h-387q-93 0 -141.5 -39t-48.5 -113q0 -59 47 -100t149 -70l195 -55q127 -35 192.5 -102t65.5 -162q0 -126 -92.5 -187t-284.5 -61h-358 z" />
<glyph unicode="t" horiz-adv-x="602" d="M121 338v903h84v-274h342v-80h-342v-541q0 -140 68 -204t216 -64h58v-78h-43q-192 0 -287.5 84.5t-95.5 253.5z" />
<glyph unicode="u" d="M119 420v547h82v-574q0 -149 86.5 -242.5t224.5 -93.5q137 0 223 93t86 243v574h84v-547q0 -202 -107 -320t-286 -118t-286 118t-107 320z" />
<glyph unicode="v" horiz-adv-x="891" d="M6 967h90l314 -848q8 -24 16 -34.5t18 -10.5q11 0 20.5 11.5t16.5 32.5l314 849h90l-332 -889q-19 -54 -44 -76t-63 -22q-39 0 -64 22t-44 76z" />
<glyph unicode="w" horiz-adv-x="1569" d="M121 375v592h82v-617q0 -130 75.5 -211.5t194.5 -81.5q120 0 195 81.5t75 211.5v617h82v-617q0 -130 75.5 -211.5t195.5 -81.5q119 0 194.5 81.5t75.5 211.5v617h84v-592q0 -183 -96.5 -288t-261.5 -105q-99 0 -175 46.5t-133 141.5q-56 -95 -132 -141.5t-175 -46.5 q-165 0 -260.5 104.5t-95.5 288.5z" />
<glyph unicode="x" horiz-adv-x="872" d="M18 0v76q175 18 276 128t101 279q0 171 -101.5 282t-275.5 128l1 74q143 -5 249 -77t168 -206q59 133 165 205t251 78v-74q-173 -17 -275 -128t-102 -282q0 -169 101.5 -279t275.5 -128l-1 -76q-143 5 -247 75.5t-168 205.5q-59 -132 -165.5 -203.5t-252.5 -77.5z" />
<glyph unicode="y" d="M119 420v547h82v-574q0 -149 86.5 -242.5t224.5 -93.5q137 0 223 93t86 243v574h84v-547q0 -191 -90 -302t-262 -134v-420h-84v420q-174 26 -262 135.5t-88 300.5z" />
<glyph unicode="z" horiz-adv-x="807" d="M53 96q0 21 10 42t41 61l527 639q6 8 9 14.5t3 11.5q0 11 -10 18t-27 7h-504v78h492q71 0 105 -22.5t34 -67.5q0 -24 -10.5 -48t-32.5 -51l-524 -635q-8 -9 -12 -18t-4 -16q0 -12 11 -18.5t32 -6.5h567v-84h-580q-60 0 -93.5 25.5t-33.5 70.5z" />
<glyph unicode="{" d="M176 485v90q10 -1 20.5 -1.5t28.5 -0.5q139 0 196.5 64.5t57.5 222.5v240q0 227 68.5 302t257.5 75h43v-88h-37q-135 0 -182 -51.5t-47 -213.5v-241q0 -175 -43 -248t-152 -105q109 -32 152 -104t43 -248v-241q0 -162 46.5 -212.5t180.5 -50.5h39v-88h-43 q-189 0 -257.5 74.5t-68.5 300.5v240q0 158 -58 222t-200 64q-7 0 -21.5 -1t-23.5 -1z" />
<glyph unicode="|" d="M467 -483v2048h90v-2048h-90z" />
<glyph unicode="}" d="M176 -326h39q134 0 180.5 50.5t46.5 212.5v241q0 174 43.5 247t153.5 105q-110 32 -153.5 105t-43.5 248v241q0 162 -47 213.5t-182 51.5h-37v88h43q189 0 257.5 -75t68.5 -302v-240q0 -158 58 -222.5t200 -64.5q7 0 21.5 1t23.5 1v-90q-9 0 -23.5 1t-21.5 1 q-142 0 -200 -64t-58 -222v-240q0 -226 -68.5 -300.5t-257.5 -74.5h-43v88z" />
<glyph unicode="~" horiz-adv-x="1706" d="M178 481v92q105 74 201 110t186 36q100 0 271 -61q12 -5 19 -7q8 -3 27 -10q168 -61 261 -61q83 0 175 37.5t212 121.5v-92q-106 -74 -202 -110.5t-185 -36.5q-99 0 -266 61q-16 6 -22 8q-12 4 -33 12q-167 60 -257 60q-83 0 -175 -37.5t-212 -122.5z" />
<glyph unicode="&#xa1;" horiz-adv-x="547" d="M197 1378q0 33 22.5 55.5t54.5 22.5t54 -22.5t22 -55.5q0 -32 -21.5 -53.5t-54.5 -21.5q-32 0 -54.5 21.5t-22.5 53.5zM231 -10v1169h86v-1169h-86z" />
<glyph unicode="&#xa2;" horiz-adv-x="1096" d="M82 774q0 159 107.5 262t275.5 103v293h80v-293h168v-76h-183q-176 0 -267 -71t-91 -208q0 -153 88 -222.5t285 -69.5h168v-82h-168v-330h-80v329q-170 2 -276.5 103.5t-106.5 261.5z" />
<glyph unicode="&#xa3;" horiz-adv-x="1096" d="M-25 0v86h60q105 0 168 77t63 208v348h-127v84h127v170q0 227 110.5 356t303.5 129q54 0 105.5 -9.5t103.5 -29.5l-25 -69q-50 15 -96 22.5t-86 7.5q-149 0 -235.5 -97.5t-86.5 -266.5v-213h252v-84h-252v-336q0 -117 -32 -185.5t-105 -111.5h398q159 0 238 98t79 297v70 h78v-88q0 -224 -103.5 -343.5t-298.5 -119.5h-639z" />
<glyph unicode="&#xa4;" horiz-adv-x="1241" d="M94 418l207 205q-45 57 -68.5 123.5t-23.5 138.5q0 71 23.5 137.5t68.5 124.5l-207 205l58 59l206 -207q60 48 125 71t138 23q72 0 138 -23.5t126 -70.5l205 207l59 -59l-207 -205q45 -58 68.5 -124.5t23.5 -137.5q0 -73 -23 -138.5t-69 -123.5l207 -205l-59 -60 l-205 207q-58 -45 -125 -68.5t-139 -23.5q-74 0 -139 23t-124 69l-206 -207zM291 887q0 -138 97 -235t235 -97q137 0 234 97t97 235q0 137 -96.5 233.5t-234.5 96.5t-235 -97t-97 -233z" />
<glyph unicode="&#xa5;" horiz-adv-x="895" d="M0 668v57h322l-58 133h-264v57h240l-222 517h84l304 -705v-1q20 -44 43 -44q21 0 39 42l2 4l305 704h82l-222 -517h240v-57h-264l-60 -133h324v-57h-348q-13 -26 -27.5 -43t-32.5 -27v-598h-77v598q-22 10 -37 27t-25 43h-348z" />
<glyph unicode="&#xa6;" d="M467 -350v758h90v-758h-90zM467 674v758h90v-758h-90z" />
<glyph unicode="&#xa7;" horiz-adv-x="1071" d="M154 -53h305q26 0 71.5 -1t63.5 -1q69 0 112 7t72 23q52 29 81.5 78t29.5 107q0 78 -46.5 129.5t-166.5 99.5l-273 107q-132 51 -190.5 117.5t-58.5 164.5q0 54 19 104.5t58 100.5q-34 38 -51.5 84t-17.5 100q0 58 20 107t58 86q41 40 94 57t182 17h313v-80h-190 q-27 0 -72.5 1t-64.5 1q-64 0 -100 -6.5t-62 -20.5q-49 -26 -75.5 -68.5t-26.5 -93.5q0 -66 35 -107.5t163 -94.5l266 -111q134 -56 189 -121.5t55 -163.5q0 -52 -18.5 -101t-55.5 -97q52 -42 78.5 -98.5t26.5 -122.5q0 -82 -39 -146t-113 -104q-38 -21 -84 -30t-133 -9h-45 h-409v86zM229 782q0 -69 46 -120.5t139 -88.5l212 -81q20 -8 54 -21q102 -38 129 -61q27 36 41 74t14 77q0 79 -44.5 129.5t-155.5 95.5l-227 90q-7 3 -17 7q-97 39 -127 61q-33 -39 -48.5 -78t-15.5 -84z" />
<glyph unicode="&#xa8;" d="M262 1237q0 31 23 54.5t53 23.5q32 0 55 -23.5t23 -54.5q0 -34 -22 -56t-56 -22t-55 22t-21 56zM608 1237q0 31 23 54.5t53 23.5q32 0 55 -23.5t23 -54.5q0 -34 -22 -56t-56 -22q-33 0 -54.5 22t-21.5 56z" />
<glyph unicode="&#xa9;" horiz-adv-x="1706" d="M123 721q0 145 56 279t161 241q101 103 232 157t280 54t282.5 -55t237.5 -160q103 -102 157 -235t54 -281q0 -150 -53.5 -280t-157.5 -232q-107 -106 -241.5 -162.5t-278.5 -56.5q-145 0 -277 55.5t-237 161.5q-105 104 -160 236t-55 278zM195 721q0 -130 50 -249.5 t144 -213.5t213.5 -144.5t249.5 -50.5t251.5 51t217.5 146q93 92 141.5 209.5t48.5 251.5q0 133 -49 252.5t-141 212.5q-95 95 -215 144.5t-254 49.5q-133 0 -251.5 -49t-209.5 -141q-95 -97 -145.5 -218t-50.5 -251zM471 725q0 205 107 328t282 123q132 0 222.5 -72 t103.5 -186h-105q-20 81 -79.5 126.5t-147.5 45.5q-126 0 -196 -97.5t-70 -273.5q0 -169 71.5 -267t194.5 -98q91 0 156 52.5t84 140.5h102q-11 -123 -108 -201t-240 -78q-173 0 -275 123.5t-102 333.5z" />
<glyph unicode="&#xaa;" horiz-adv-x="868" d="M49 1094q0 152 104 252t261 100q97 0 179 -43.5t136 -124.5q26 -40 37.5 -93t11.5 -130v-299h-61v303q0 153 -82 243.5t-219 90.5q-128 0 -214.5 -85t-86.5 -212q0 -129 85.5 -213t215.5 -84q72 0 134 27.5t118 84.5v-75q-54 -47 -116.5 -70t-135.5 -23 q-79 0 -146.5 26.5t-117.5 76.5t-76.5 113.5t-26.5 134.5z" />
<glyph unicode="&#xab;" horiz-adv-x="874" d="M141 489l240 318h94l-237 -318l237 -317h-94zM459 489l237 318h97l-240 -318l240 -317h-97z" />
<glyph unicode="&#xac;" horiz-adv-x="1706" d="M254 774v82h1198v-502h-78v420h-1120z" />
<glyph unicode="&#xad;" horiz-adv-x="676" d="M141 455v82h394v-82h-394z" />
<glyph unicode="&#xae;" horiz-adv-x="1706" d="M123 721q0 145 56 279t161 241q101 103 232 157t280 54t282.5 -55t237.5 -160q103 -102 157 -235t54 -281q0 -150 -53.5 -280t-157.5 -232q-107 -106 -241.5 -162.5t-278.5 -56.5q-145 0 -277 55.5t-237 161.5q-105 104 -160 236t-55 278zM195 721q0 -130 50 -249.5 t144 -213.5t213.5 -144.5t249.5 -50.5t251.5 51t217.5 146q93 92 141.5 209.5t48.5 251.5q0 133 -49 252.5t-141 212.5q-95 95 -215 144.5t-254 49.5q-133 0 -251.5 -49t-209.5 -141q-95 -97 -145.5 -218t-50.5 -251zM569 309v846h305q180 0 264.5 -56.5t84.5 -176.5 q0 -89 -55.5 -149t-147.5 -71l190 -393h-131l-182 377h-213v-377h-115zM684 764h168q145 0 199.5 36t54.5 126q0 78 -61.5 114.5t-192.5 36.5h-168v-313z" />
<glyph unicode="&#xaf;" d="M266 1188v100h492v-100h-492z" />
<glyph unicode="&#xb0;" horiz-adv-x="674" d="M63 1176q0 114 80.5 194t194.5 80q112 0 192 -80.5t80 -193.5q0 -114 -80 -193.5t-194 -79.5q-115 0 -194 79t-79 194zM125 1176q0 -89 62.5 -151t150.5 -62t150.5 62t62.5 151q0 87 -63 150t-150 63q-89 0 -151 -62t-62 -151z" />
<glyph unicode="&#xb1;" horiz-adv-x="1706" d="M254 59v82h1198v-82h-1198zM254 727v80h559v354h80v-354h559v-80h-559v-352h-80v352h-559z" />
<glyph unicode="&#xb2;" horiz-adv-x="723" d="M61 633q0 22 14 40.5t52 45.5l346 254q71 51 103 103t32 114q0 92 -67.5 151.5t-171.5 59.5q-105 0 -174.5 -61t-69.5 -152q0 -97 67.5 -153t190.5 -62l-51 -39q-124 17 -194 82t-70 164q0 116 85 192t216 76q129 0 213 -73t84 -185q0 -75 -40 -137t-134 -131l-347 -256 q-8 -7 -12 -13t-4 -12q0 -9 8 -14.5t23 -5.5h512v-48h-502q-64 0 -86.5 13.5t-22.5 46.5z" />
<glyph unicode="&#xb3;" horiz-adv-x="723" d="M82 573v48h270q121 0 184.5 53t63.5 153q0 93 -61 147t-166 54h-185v35l326 287q10 10 13 15t3 9q0 7 -6.5 9.5t-23.5 2.5h-406v46h420q40 0 60 -13t20 -39q0 -11 -5.5 -22t-17.5 -21l-299 -262h86q149 0 226.5 -63t77.5 -185q0 -120 -81.5 -187t-228.5 -67h-270z" />
<glyph unicode="&#xb4;" d="M391 1081l215 351h133l-268 -351h-80z" />
<glyph unicode="&#xb5;" horiz-adv-x="1094" d="M-111 -424l316 1487h121l-123 -590q-9 -43 -13 -77t-4 -64q0 -126 60 -192t174 -66q127 0 219.5 109t136.5 313l125 567h121l-166 -786q-2 -9 -5 -24q-20 -92 -20 -112q0 -31 17.5 -47t50.5 -16q9 0 18.5 0.5t20.5 1.5l-18 -96q-3 -1 -8 -2q-49 -11 -68 -11 q-68 0 -100.5 31.5t-32.5 95.5q0 7 0.5 16t3.5 29q-43 -83 -123.5 -127.5t-188.5 -44.5q-97 0 -169.5 45.5t-104.5 126.5l-119 -567h-121z" />
<glyph unicode="&#xb6;" d="M90 1130q0 157 108.5 253t286.5 96h447v-64h-129v-1415h-70v1415h-192v-1415h-70v782q-175 8 -278 102.5t-103 245.5z" />
<glyph unicode="&#xb7;" horiz-adv-x="547" d="M197 735q0 32 22.5 54t54.5 22q33 0 54.5 -22t21.5 -54t-22 -55t-54 -23t-54.5 23t-22.5 55z" />
<glyph unicode="&#xb8;" d="M319 -350q78 -17 131.5 -24t98.5 -7q68 0 103.5 26t35.5 74q0 53 -37 78t-116 25q-22 0 -34.5 -0.5t-22.5 -1.5l48 235h62l-35 -170h14q99 0 150 -41t51 -120q0 -86 -56.5 -131.5t-164.5 -45.5q-48 0 -103.5 8.5t-124.5 26.5v68z" />
<glyph unicode="&#xb9;" horiz-adv-x="723" d="M201 1389l16 43h199v-859h-54v816h-161z" />
<glyph unicode="&#xba;" horiz-adv-x="834" d="M49 1094q0 69 27.5 132.5t81.5 116.5q53 50 119 76.5t139 26.5t140 -26.5t118 -76.5q53 -49 80.5 -113.5t27.5 -135.5q0 -72 -27.5 -136t-80.5 -114q-50 -49 -117 -75t-141 -26t-140 26t-118 75q-54 53 -81.5 116.5t-27.5 133.5zM115 1096q0 -125 87.5 -211t213.5 -86 q125 0 213 86.5t88 210.5t-88 210.5t-213 86.5q-126 0 -213.5 -86.5t-87.5 -210.5z" />
<glyph unicode="&#xbb;" horiz-adv-x="874" d="M82 172l237 317l-237 318h96l238 -318l-238 -317h-96zM397 172l240 317l-240 318h97l237 -318l-237 -317h-97z" />
<glyph unicode="&#xbc;" horiz-adv-x="1722" d="M193 1391l14 39h190v-801h-51v762h-153zM352 -25l948 1457h84l-950 -1457h-82zM1065 274q0 11 5 23t15 29l336 489h64l-350 -509q-4 -8 -5 -12t-2 -9q0 -9 7.5 -12t29.5 -3h340v482l56 49v-531h149v-43h-149v-227h-56v227h-356q-47 0 -65.5 11t-18.5 36z" />
<glyph unicode="&#xbd;" horiz-adv-x="1722" d="M193 1391l14 39h190v-801h-51v762h-153zM352 -25l948 1457h84l-950 -1457h-82zM1090 55q0 21 12.5 37.5t50.5 42.5l332 238q67 48 98 96.5t31 105.5q0 86 -65 141.5t-165 55.5t-165.5 -56.5t-65.5 -142.5q0 -90 64 -142t182 -58l-49 -37q-119 16 -185.5 77t-66.5 152 q0 109 80.5 179.5t205.5 70.5q124 0 204.5 -68t80.5 -172q0 -68 -37.5 -125.5t-130.5 -125.5l-330 -238q-9 -8 -12.5 -12.5t-3.5 -10.5q0 -8 8 -13t21 -5h489v-45h-479q-61 0 -82.5 12.5t-21.5 42.5z" />
<glyph unicode="&#xbe;" horiz-adv-x="1722" d="M78 629v45h258q116 0 176.5 48.5t60.5 141.5q0 87 -58.5 138t-160.5 51h-174v32l309 269q10 7 13.5 12t3.5 10q0 7 -7 10t-24 3h-387v41h401q40 0 59 -12t19 -36q0 -10 -5.5 -20.5t-17.5 -20.5l-284 -245h82q142 0 215.5 -59t73.5 -173q0 -111 -77.5 -173t-217.5 -62 h-258zM352 -25l948 1457h84l-950 -1457h-82zM1065 274q0 11 5 23t15 29l336 489h64l-350 -509q-4 -8 -5 -12t-2 -9q0 -9 7.5 -12t29.5 -3h340v482l56 49v-531h149v-43h-149v-227h-56v227h-356q-47 0 -65.5 11t-18.5 36z" />
<glyph unicode="&#xbf;" horiz-adv-x="963" d="M88 401q0 175 107 283.5t303 132.5v359h86v-443h-29q-171 0 -274 -92t-103 -242q0 -146 90.5 -237.5t235.5 -91.5q138 0 224.5 83t105.5 234h84q-17 -184 -129 -291.5t-287 -107.5q-181 0 -297.5 116.5t-116.5 296.5zM465 1376q0 33 22 55.5t54 22.5t54.5 -22.5 t22.5 -55.5q0 -32 -22.5 -54t-54.5 -22q-33 0 -54.5 22t-21.5 54z" />
<glyph unicode="&#xc0;" horiz-adv-x="1204" d="M127 0v926q0 243 129.5 386.5t345.5 143.5q215 0 344 -143.5t129 -386.5v-926h-90v711h-696v80h696v104q0 233 -98 356t-285 123t-286 -123t-99 -356v-895h-90zM375 1915h133l215 -351h-80z" />
<glyph unicode="&#xc1;" horiz-adv-x="1204" d="M127 0v926q0 243 129.5 386.5t345.5 143.5q215 0 344 -143.5t129 -386.5v-926h-90v711h-696v80h696v104q0 233 -98 356t-285 123t-286 -123t-99 -356v-895h-90zM481 1564l215 351h133l-268 -351h-80z" />
<glyph unicode="&#xc2;" horiz-adv-x="1204" d="M127 0v926q0 243 129.5 386.5t345.5 143.5q215 0 344 -143.5t129 -386.5v-926h-90v711h-696v80h696v104q0 233 -98 356t-285 123t-286 -123t-99 -356v-895h-90zM328 1564l208 351h132l206 -351h-79l-193 277l-193 -277h-81z" />
<glyph unicode="&#xc3;" horiz-adv-x="1204" d="M127 0v926q0 243 129.5 386.5t345.5 143.5q215 0 344 -143.5t129 -386.5v-926h-90v711h-696v80h696v104q0 233 -98 356t-285 123t-286 -123t-99 -356v-895h-90zM317 1630q23 84 69 127t114 43q20 0 37 -2.5t32 -7.5l86 -29q13 -4 26.5 -6t29.5 -2q32 0 57 17t45 52h72 q-27 -86 -71.5 -129t-109.5 -43q-15 0 -35 3.5t-40 9.5l-88 26q-13 4 -26.5 6t-29.5 2q-28 0 -53.5 -17.5t-42.5 -49.5h-72z" />
<glyph unicode="&#xc4;" horiz-adv-x="1204" d="M127 0v926q0 243 129.5 386.5t345.5 143.5q215 0 344 -143.5t129 -386.5v-926h-90v711h-696v80h696v104q0 233 -98 356t-285 123t-286 -123t-99 -356v-895h-90zM352 1720q0 31 23 54.5t53 23.5q32 0 55 -23.5t23 -54.5q0 -34 -22 -56t-56 -22t-55 22t-21 56zM698 1720 q0 31 23 54.5t53 23.5q32 0 55 -23.5t23 -54.5q0 -34 -22 -56t-56 -22q-33 0 -54.5 22t-21.5 56z" />
<glyph unicode="&#xc5;" horiz-adv-x="1204" d="M127 0v926q0 243 129.5 386.5t345.5 143.5q215 0 344 -143.5t129 -386.5v-926h-90v711h-696v80h696v104q0 233 -98 356t-285 123q-186 0 -284.5 -123t-98.5 -356v-895h-92zM369 1739q0 98 67.5 165.5t165.5 67.5t166 -67.5t68 -165.5q0 -99 -68 -166.5t-166 -67.5 t-165.5 67.5t-67.5 166.5zM449 1739q0 -64 44.5 -108t108.5 -44q65 0 109.5 44t44.5 108t-44.5 108.5t-109.5 44.5q-64 0 -108.5 -45t-44.5 -108z" />
<glyph unicode="&#xc6;" horiz-adv-x="1927" d="M127 0v926q0 243 129.5 386.5t345.5 143.5q182 0 308 -108.5t153 -290.5q102 193 272 285t428 92q34 0 52 -0.5t34 -2.5v-79q-15 1 -32.5 1.5t-53.5 0.5q-299 0 -473.5 -143t-214.5 -420h774v-80h-778q17 -307 195.5 -471t494.5 -164q28 0 82 3l6 1v-80 q-14 -1 -31.5 -1.5t-52.5 -0.5q-252 0 -419 86.5t-271 269.5v-354h-90v711h-696v80h696v104q0 233 -98 356t-285 123q-186 0 -284.5 -123t-98.5 -356v-895h-92z" />
<glyph unicode="&#xc7;" horiz-adv-x="1012" d="M72 717q0 339 210 528t588 189q31 0 46 -0.5t28 -2.5v-79q-16 1 -33 1.5t-53 0.5q-327 0 -509.5 -168.5t-182.5 -468.5q0 -301 184 -470t514 -169q32 0 49.5 0.5t30.5 0.5v-79h-72q-378 0 -589 189.5t-211 527.5zM471 -350q78 -17 131.5 -24t98.5 -7q68 0 103.5 26 t35.5 74q0 53 -37 78t-116 25q-22 0 -34.5 -0.5t-22.5 -1.5l48 235h62l-35 -170h14q99 0 150 -41t51 -120q0 -86 -56.5 -131.5t-164.5 -45.5q-48 0 -103.5 8.5t-124.5 26.5v68z" />
<glyph unicode="&#xc8;" d="M72 717q0 201 93 365t261 257q81 47 196.5 70t266.5 23h55v-80q-15 1 -32.5 1.5t-51.5 0.5q-306 0 -482.5 -146.5t-207.5 -425.5h774v-82h-776q17 -304 194.5 -463t499.5 -159q33 0 50 0.5t32 0.5v-79h-59q-149 0 -262.5 21.5t-190.5 64.5q-170 95 -265 261.5t-95 369.5z M445 1915h133l215 -351h-80z" />
<glyph unicode="&#xc9;" d="M72 717q0 201 93 365t261 257q81 47 196.5 70t266.5 23h55v-80q-15 1 -32.5 1.5t-51.5 0.5q-306 0 -482.5 -146.5t-207.5 -425.5h774v-82h-776q17 -304 194.5 -463t499.5 -159q33 0 50 0.5t32 0.5v-79h-59q-149 0 -262.5 21.5t-190.5 64.5q-170 95 -265 261.5t-95 369.5z M551 1564l215 351h133l-268 -351h-80z" />
<glyph unicode="&#xca;" d="M72 717q0 201 93 365t261 257q81 47 196.5 70t266.5 23h55v-80q-15 1 -32.5 1.5t-51.5 0.5q-306 0 -482.5 -146.5t-207.5 -425.5h774v-82h-776q17 -304 194.5 -463t499.5 -159q33 0 50 0.5t32 0.5v-79h-59q-149 0 -262.5 21.5t-190.5 64.5q-170 95 -265 261.5t-95 369.5z M398 1564l208 351h132l206 -351h-79l-193 277l-193 -277h-81z" />
<glyph unicode="&#xcb;" d="M72 717q0 201 93 365t261 257q81 47 196.5 70t266.5 23h55v-80q-15 1 -32.5 1.5t-51.5 0.5q-306 0 -482.5 -146.5t-207.5 -425.5h774v-82h-776q17 -304 194.5 -463t499.5 -159q33 0 50 0.5t32 0.5v-79h-59q-149 0 -262.5 21.5t-190.5 64.5q-170 95 -265 261.5t-95 369.5z M422 1720q0 31 23 54.5t53 23.5q32 0 55 -23.5t23 -54.5q0 -34 -22 -56t-56 -22t-55 22t-21 56zM768 1720q0 31 23 54.5t53 23.5q32 0 55 -23.5t23 -54.5q0 -34 -22 -56t-56 -22q-33 0 -54.5 22t-21.5 56z" />
<glyph unicode="&#xcc;" horiz-adv-x="389" d="M-32 1915h133l215 -351h-80zM150 0v1432h90v-1432h-90z" />
<glyph unicode="&#xcd;" horiz-adv-x="389" d="M74 1564l215 351h133l-268 -351h-80zM150 0v1432h90v-1432h-90z" />
<glyph unicode="&#xce;" horiz-adv-x="389" d="M-79 1564l208 351h132l206 -351h-79l-193 277l-193 -277h-81zM150 0v1432h90v-1432h-90z" />
<glyph unicode="&#xcf;" horiz-adv-x="389" d="M-55 1720q0 31 23 54.5t53 23.5q32 0 55 -23.5t23 -54.5q0 -34 -22 -56t-56 -22t-55 22t-21 56zM150 0v1432h90v-1432h-90zM291 1720q0 31 23 54.5t53 23.5q32 0 55 -23.5t23 -54.5q0 -34 -22 -56t-56 -22q-33 0 -54.5 22t-21.5 56z" />
<glyph unicode="&#xd0;" horiz-adv-x="1276" d="M10 715v71h142v646h235q169 0 287.5 -25t202.5 -78q163 -101 245 -254t82 -358q0 -341 -212 -530t-599 -189q-35 0 -53 0.5t-33 2.5v79q2 0 7 -1q58 -3 87 -3q337 0 523 168.5t186 472.5q0 133 -42 245.5t-124 198.5q-95 102 -221 147.5t-326 45.5h-155v-568h362v-71 h-362v-715h-90v715h-142z" />
<glyph unicode="&#xd1;" horiz-adv-x="1255" d="M141 0v1315q0 59 31 94t84 35q41 0 71.5 -24t53.5 -74l590 -1266q5 -10 12 -15.5t14 -5.5q12 0 19.5 9.5t7.5 25.5v1338h90v-1328q0 -59 -31 -94t-84 -35q-41 0 -71 24t-54 75l-589 1267q-5 10 -12 15.5t-15 5.5q-11 0 -19 -10.5t-8 -26.5v-1325h-90zM354 1630 q23 84 69 127t114 43q20 0 37 -2.5t32 -7.5l86 -29q13 -4 26.5 -6t29.5 -2q32 0 57 17t45 52h72q-27 -86 -71.5 -129t-109.5 -43q-15 0 -35 3.5t-40 9.5l-88 26q-13 4 -26.5 6t-29.5 2q-28 0 -53.5 -17.5t-42.5 -49.5h-72z" />
<glyph unicode="&#xd2;" horiz-adv-x="1583" d="M72 717q0 149 54 283t159 241q101 104 232 159.5t276 55.5q143 0 274.5 -56t232.5 -161q103 -106 157 -239.5t54 -282.5q0 -150 -54 -284.5t-157 -239.5q-101 -105 -232.5 -161.5t-274.5 -56.5q-145 0 -276 55.5t-232 159.5q-104 107 -158.5 242t-54.5 285zM166 719 q0 -133 47.5 -252t138.5 -215q88 -92 201.5 -141.5t239.5 -49.5q125 0 238 49.5t202 143.5q90 95 137 213.5t47 251.5t-46.5 251t-137.5 214q-89 93 -201.5 141.5t-238.5 48.5q-127 0 -240.5 -48.5t-200.5 -139.5q-91 -96 -138.5 -215t-47.5 -252zM566 1915h133l215 -351 h-80z" />
<glyph unicode="&#xd3;" horiz-adv-x="1583" d="M72 717q0 149 54 283t159 241q101 104 232 159.5t276 55.5q143 0 274.5 -56t232.5 -161q103 -106 157 -239.5t54 -282.5q0 -150 -54 -284.5t-157 -239.5q-101 -105 -232.5 -161.5t-274.5 -56.5q-145 0 -276 55.5t-232 159.5q-104 107 -158.5 242t-54.5 285zM166 719 q0 -133 47.5 -252t138.5 -215q88 -92 201.5 -141.5t239.5 -49.5q125 0 238 49.5t202 143.5q90 95 137 213.5t47 251.5t-46.5 251t-137.5 214q-89 93 -201.5 141.5t-238.5 48.5q-127 0 -240.5 -48.5t-200.5 -139.5q-91 -96 -138.5 -215t-47.5 -252zM672 1564l215 351h133 l-268 -351h-80z" />
<glyph unicode="&#xd4;" horiz-adv-x="1583" d="M72 717q0 149 54 283t159 241q101 104 232 159.5t276 55.5q143 0 274.5 -56t232.5 -161q103 -106 157 -239.5t54 -282.5q0 -150 -54 -284.5t-157 -239.5q-101 -105 -232.5 -161.5t-274.5 -56.5q-145 0 -276 55.5t-232 159.5q-104 107 -158.5 242t-54.5 285zM166 719 q0 -133 47.5 -252t138.5 -215q88 -92 201.5 -141.5t239.5 -49.5q125 0 238 49.5t202 143.5q90 95 137 213.5t47 251.5t-46.5 251t-137.5 214q-89 93 -201.5 141.5t-238.5 48.5q-127 0 -240.5 -48.5t-200.5 -139.5q-91 -96 -138.5 -215t-47.5 -252zM519 1564l208 351h132 l206 -351h-79l-193 277l-193 -277h-81z" />
<glyph unicode="&#xd5;" horiz-adv-x="1583" d="M72 717q0 149 54 283t159 241q101 104 232 159.5t276 55.5q143 0 274.5 -56t232.5 -161q103 -106 157 -239.5t54 -282.5q0 -150 -54 -284.5t-157 -239.5q-101 -105 -232.5 -161.5t-274.5 -56.5q-145 0 -276 55.5t-232 159.5q-104 107 -158.5 242t-54.5 285zM166 719 q0 -133 47.5 -252t138.5 -215q88 -92 201.5 -141.5t239.5 -49.5q125 0 238 49.5t202 143.5q90 95 137 213.5t47 251.5t-46.5 251t-137.5 214q-89 93 -201.5 141.5t-238.5 48.5q-127 0 -240.5 -48.5t-200.5 -139.5q-91 -96 -138.5 -215t-47.5 -252zM508 1630q23 84 69 127 t114 43q20 0 37 -2.5t32 -7.5l86 -29q13 -4 26.5 -6t29.5 -2q32 0 57 17t45 52h72q-27 -86 -71.5 -129t-109.5 -43q-15 0 -35 3.5t-40 9.5l-88 26q-13 4 -26.5 6t-29.5 2q-28 0 -53.5 -17.5t-42.5 -49.5h-72z" />
<glyph unicode="&#xd6;" horiz-adv-x="1583" d="M72 717q0 149 54 283t159 241q101 104 232 159.5t276 55.5q143 0 274.5 -56t232.5 -161q103 -106 157 -239.5t54 -282.5q0 -150 -54 -284.5t-157 -239.5q-101 -105 -232.5 -161.5t-274.5 -56.5q-145 0 -276 55.5t-232 159.5q-104 107 -158.5 242t-54.5 285zM166 719 q0 -133 47.5 -252t138.5 -215q88 -92 201.5 -141.5t239.5 -49.5q125 0 238 49.5t202 143.5q90 95 137 213.5t47 251.5t-46.5 251t-137.5 214q-89 93 -201.5 141.5t-238.5 48.5q-127 0 -240.5 -48.5t-200.5 -139.5q-91 -96 -138.5 -215t-47.5 -252zM543 1720q0 31 23 54.5 t53 23.5q32 0 55 -23.5t23 -54.5q0 -34 -22 -56t-56 -22t-55 22t-21 56zM889 1720q0 31 23 54.5t53 23.5q32 0 55 -23.5t23 -54.5q0 -34 -22 -56t-56 -22q-33 0 -54.5 22t-21.5 56z" />
<glyph unicode="&#xd7;" horiz-adv-x="1706" d="M309 123l488 487l-488 488l58 57l487 -487l487 487l58 -57l-488 -488l488 -487l-58 -57l-487 487l-487 -487z" />
<glyph unicode="&#xd8;" horiz-adv-x="1583" d="M16 -12l234 239q-88 104 -133 229t-45 267q0 146 55.5 279.5t161.5 240.5q102 103 233 158t277 55q136 0 254 -48t221 -146l225 225l53 -53l-221 -226q91 -111 135.5 -231.5t44.5 -255.5q0 -152 -51 -283.5t-149 -232.5q-105 -110 -238.5 -169t-275.5 -59t-268 50 t-226 145l-233 -235zM166 725q0 -122 37.5 -231t111.5 -201l902 909q-93 86 -199 129t-225 43q-128 0 -240.5 -48t-200.5 -140q-90 -95 -138 -213.5t-48 -247.5zM367 238q86 -87 195.5 -132t234.5 -45q123 0 237.5 52.5t206.5 150.5q86 92 131 207t45 242t-38 237.5 t-111 194.5z" />
<glyph unicode="&#xd9;" horiz-adv-x="1204" d="M127 506v926h90v-891q0 -234 99 -357t286 -123t285 123t98 357v891h90v-926q0 -244 -129 -387.5t-344 -143.5q-216 0 -345.5 144t-129.5 387zM375 1915h133l215 -351h-80z" />
<glyph unicode="&#xda;" horiz-adv-x="1204" d="M127 506v926h90v-891q0 -234 99 -357t286 -123t285 123t98 357v891h90v-926q0 -244 -129 -387.5t-344 -143.5q-216 0 -345.5 144t-129.5 387zM481 1564l215 351h133l-268 -351h-80z" />
<glyph unicode="&#xdb;" horiz-adv-x="1204" d="M127 506v926h90v-891q0 -234 99 -357t286 -123t285 123t98 357v891h90v-926q0 -244 -129 -387.5t-344 -143.5q-216 0 -345.5 144t-129.5 387zM328 1564l208 351h132l206 -351h-79l-193 277l-193 -277h-81z" />
<glyph unicode="&#xdc;" horiz-adv-x="1204" d="M127 506v926h90v-891q0 -234 99 -357t286 -123t285 123t98 357v891h90v-926q0 -244 -129 -387.5t-344 -143.5q-216 0 -345.5 144t-129.5 387zM352 1720q0 31 23 54.5t53 23.5q32 0 55 -23.5t23 -54.5q0 -34 -22 -56t-56 -22t-55 22t-21 56zM698 1720q0 31 23 54.5 t53 23.5q32 0 55 -23.5t23 -54.5q0 -34 -22 -56t-56 -22q-33 0 -54.5 22t-21.5 56z" />
<glyph unicode="&#xdd;" horiz-adv-x="1081" d="M115 1071v361h90v-336q0 -204 86.5 -312t249.5 -108t249.5 107.5t86.5 312.5v336h90v-361q0 -206 -99 -328.5t-282 -144.5v-598h-90v598q-185 25 -283 147t-98 326zM420 1564l215 351h133l-268 -351h-80z" />
<glyph unicode="&#xde;" horiz-adv-x="1057" d="M127 0v1456h90v-409q64 88 152.5 133t199.5 45q188 0 316.5 -127.5t128.5 -311.5q0 -94 -38 -178.5t-108 -146.5q-67 -61 -147.5 -87t-208.5 -26h-225v82h256q172 0 274.5 96.5t102.5 257.5q0 159 -99 258t-260 99q-162 0 -253 -112t-91 -314v-715h-90z" />
<glyph unicode="&#xdf;" horiz-adv-x="1110" d="M14 807v84h123v110q0 215 101.5 333t285.5 118q137 0 227.5 -77.5t90.5 -192.5q0 -69 -35.5 -123.5t-120.5 -112.5q-33 -22 -82 -48t-49 -34q0 -6 79 -39.5t148 -70.5q132 -73 194 -162.5t62 -206.5q0 -181 -127.5 -283t-357.5 -102h-254v82h289q170 0 268 81t98 220 q0 104 -63 182t-205 148q-21 10 -58 28q-163 80 -163 125q0 40 118 107q21 12 31 18q72 41 106 87t34 104q0 81 -65 136.5t-161 55.5q-153 0 -230 -94t-77 -281v-999h-84v807h-123z" />
<glyph unicode="&#xe0;" horiz-adv-x="1157" d="M66 483q0 218 137.5 360t347.5 142q131 0 240 -62t180 -178q35 -58 51 -134.5t16 -182.5v-428h-84v434q0 218 -108.5 346.5t-290.5 128.5q-171 0 -286 -121t-115 -303q0 -184 113.5 -304t287.5 -120q96 0 179 40.5t155 121.5v-110q-72 -66 -155.5 -98.5t-178.5 -32.5 q-105 0 -195 37.5t-157 109.5t-102 162.5t-35 191.5zM324 1432h133l215 -351h-80z" />
<glyph unicode="&#xe1;" horiz-adv-x="1157" d="M66 483q0 218 137.5 360t347.5 142q131 0 240 -62t180 -178q35 -58 51 -134.5t16 -182.5v-428h-84v434q0 218 -108.5 346.5t-290.5 128.5q-171 0 -286 -121t-115 -303q0 -184 113.5 -304t287.5 -120q96 0 179 40.5t155 121.5v-110q-72 -66 -155.5 -98.5t-178.5 -32.5 q-105 0 -195 37.5t-157 109.5t-102 162.5t-35 191.5zM430 1081l215 351h133l-268 -351h-80z" />
<glyph unicode="&#xe2;" horiz-adv-x="1157" d="M66 483q0 218 137.5 360t347.5 142q131 0 240 -62t180 -178q35 -58 51 -134.5t16 -182.5v-428h-84v434q0 218 -108.5 346.5t-290.5 128.5q-171 0 -286 -121t-115 -303q0 -184 113.5 -304t287.5 -120q96 0 179 40.5t155 121.5v-110q-72 -66 -155.5 -98.5t-178.5 -32.5 q-105 0 -195 37.5t-157 109.5t-102 162.5t-35 191.5zM277 1081l208 351h132l206 -351h-79l-193 277l-193 -277h-81z" />
<glyph unicode="&#xe3;" horiz-adv-x="1157" d="M66 483q0 218 137.5 360t347.5 142q131 0 240 -62t180 -178q35 -58 51 -134.5t16 -182.5v-428h-84v434q0 218 -108.5 346.5t-290.5 128.5q-171 0 -286 -121t-115 -303q0 -184 113.5 -304t287.5 -120q96 0 179 40.5t155 121.5v-110q-72 -66 -155.5 -98.5t-178.5 -32.5 q-105 0 -195 37.5t-157 109.5t-102 162.5t-35 191.5zM266 1147q23 84 69 127t114 43q20 0 37 -2.5t32 -7.5l86 -29q13 -4 26.5 -6t29.5 -2q32 0 57 17t45 52h72q-27 -86 -71.5 -129t-109.5 -43q-15 0 -35 3.5t-40 9.5l-88 26q-13 4 -26.5 6t-29.5 2q-28 0 -53.5 -17.5 t-42.5 -49.5h-72z" />
<glyph unicode="&#xe4;" horiz-adv-x="1157" d="M66 483q0 218 137.5 360t347.5 142q131 0 240 -62t180 -178q35 -58 51 -134.5t16 -182.5v-428h-84v434q0 218 -108.5 346.5t-290.5 128.5q-171 0 -286 -121t-115 -303q0 -184 113.5 -304t287.5 -120q96 0 179 40.5t155 121.5v-110q-72 -66 -155.5 -98.5t-178.5 -32.5 q-105 0 -195 37.5t-157 109.5t-102 162.5t-35 191.5zM301 1237q0 31 23 54.5t53 23.5q32 0 55 -23.5t23 -54.5q0 -34 -22 -56t-56 -22t-55 22t-21 56zM647 1237q0 31 23 54.5t53 23.5q32 0 55 -23.5t23 -54.5q0 -34 -22 -56t-56 -22q-33 0 -54.5 22t-21.5 56z" />
<glyph unicode="&#xe5;" horiz-adv-x="1157" d="M66 483q0 218 137.5 360t347.5 142q131 0 240 -62t180 -178q35 -58 51 -134.5t16 -182.5v-428h-84v434q0 218 -108.5 346.5t-290.5 128.5q-171 0 -286 -121t-115 -303q0 -184 113.5 -304t287.5 -120q96 0 179 40.5t155 121.5v-110q-72 -66 -155.5 -98.5t-178.5 -32.5 q-105 0 -195 37.5t-157 109.5t-102 162.5t-35 191.5zM348 1286q0 98 67.5 166t166.5 68q98 0 166.5 -68t68.5 -166t-68.5 -165.5t-166.5 -67.5q-99 0 -166.5 67.5t-67.5 165.5zM430 1286q0 -63 45 -108t109 -45t107.5 44t43.5 109t-43.5 109.5t-107.5 44.5t-109 -45 t-45 -109z" />
<glyph unicode="&#xe6;" horiz-adv-x="1896" d="M68 260q0 147 176.5 258t562.5 205q-53 97 -134 144.5t-194 47.5q-78 0 -155 -21t-154 -65l-45 72q84 46 173.5 69t182.5 23q156 0 263.5 -71t166.5 -213q57 130 173 203t266 73q138 0 246.5 -67t175.5 -193l-725 -319l-29 67l631 285q-56 75 -132.5 114t-168.5 39 q-170 0 -287 -123t-117 -303q0 -179 116.5 -303.5t282.5 -124.5q145 0 251.5 91t140.5 243l88 -18q-47 -182 -175.5 -286.5t-304.5 -104.5q-142 0 -257.5 75t-178.5 207q-56 -135 -172.5 -208.5t-273.5 -73.5q-180 0 -286.5 76t-106.5 202zM162 256q0 -86 80.5 -142.5 t206.5 -56.5q184 0 295.5 115.5t111.5 306.5q0 29 -4.5 70.5t-14.5 97.5q-351 -84 -513 -178.5t-162 -212.5z" />
<glyph unicode="&#xe7;" horiz-adv-x="782" d="M96 483q0 121 55 224t156 172q68 46 150 67t207 21h73v-76h-90q-206 0 -334.5 -113.5t-128.5 -294.5q0 -180 129 -293.5t334 -113.5h90v-76h-73q-262 0 -415 131t-153 352zM288 -350q78 -17 131.5 -24t98.5 -7q68 0 103.5 26t35.5 74q0 53 -37 78t-116 25 q-22 0 -34.5 -0.5t-22.5 -1.5l48 235h62l-35 -170h14q99 0 150 -41t51 -120q0 -86 -56.5 -131.5t-164.5 -45.5q-48 0 -103.5 8.5t-124.5 26.5v68z" />
<glyph unicode="&#xe8;" horiz-adv-x="1104" d="M66 483q0 102 37 193t108 164q70 71 159 108t191 37q131 0 235.5 -61t176.5 -181l-674 -450l-39 65l598 400q-55 75 -131 114t-168 39q-170 0 -287.5 -123.5t-117.5 -302.5q0 -178 116.5 -301t284.5 -123q165 0 276 113.5t123 296.5h88q-12 -215 -149 -352t-338 -137 q-98 0 -186.5 37t-157.5 108q-71 72 -108 163.5t-37 192.5zM326 1432h133l215 -351h-80z" />
<glyph unicode="&#xe9;" horiz-adv-x="1104" d="M66 483q0 102 37 193t108 164q70 71 159 108t191 37q131 0 235.5 -61t176.5 -181l-674 -450l-39 65l598 400q-55 75 -131 114t-168 39q-170 0 -287.5 -123.5t-117.5 -302.5q0 -178 116.5 -301t284.5 -123q165 0 276 113.5t123 296.5h88q-12 -215 -149 -352t-338 -137 q-98 0 -186.5 37t-157.5 108q-71 72 -108 163.5t-37 192.5zM432 1081l215 351h133l-268 -351h-80z" />
<glyph unicode="&#xea;" horiz-adv-x="1104" d="M66 483q0 102 37 193t108 164q70 71 159 108t191 37q131 0 235.5 -61t176.5 -181l-674 -450l-39 65l598 400q-55 75 -131 114t-168 39q-170 0 -287.5 -123.5t-117.5 -302.5q0 -178 116.5 -301t284.5 -123q165 0 276 113.5t123 296.5h88q-12 -215 -149 -352t-338 -137 q-98 0 -186.5 37t-157.5 108q-71 72 -108 163.5t-37 192.5zM279 1081l208 351h132l206 -351h-79l-193 277l-193 -277h-81z" />
<glyph unicode="&#xeb;" horiz-adv-x="1104" d="M66 483q0 102 37 193t108 164q70 71 159 108t191 37q131 0 235.5 -61t176.5 -181l-674 -450l-39 65l598 400q-55 75 -131 114t-168 39q-170 0 -287.5 -123.5t-117.5 -302.5q0 -178 116.5 -301t284.5 -123q165 0 276 113.5t123 296.5h88q-12 -215 -149 -352t-338 -137 q-98 0 -186.5 37t-157.5 108q-71 72 -108 163.5t-37 192.5zM303 1237q0 31 23 54.5t53 23.5q32 0 55 -23.5t23 -54.5q0 -34 -22 -56t-56 -22t-55 22t-21 56zM649 1237q0 31 23 54.5t53 23.5q32 0 55 -23.5t23 -54.5q0 -34 -22 -56t-56 -22q-33 0 -54.5 22t-21.5 56z" />
<glyph unicode="&#xec;" horiz-adv-x="350" d="M-51 1432h133l215 -351h-80zM133 0v967h84v-967h-84z" />
<glyph unicode="&#xed;" horiz-adv-x="350" d="M55 1081l215 351h133l-268 -351h-80zM133 0v967h84v-967h-84z" />
<glyph unicode="&#xee;" horiz-adv-x="350" d="M-98 1081l208 351h132l206 -351h-79l-193 277l-193 -277h-81zM133 0v967h84v-967h-84z" />
<glyph unicode="&#xef;" horiz-adv-x="350" d="M-74 1237q0 31 23 54.5t53 23.5q32 0 55 -23.5t23 -54.5q0 -34 -22 -56t-56 -22t-55 22t-21 56zM133 0v967h84v-967h-84zM272 1237q0 31 23 54.5t53 23.5q32 0 55 -23.5t23 -54.5q0 -34 -22 -56t-56 -22q-33 0 -54.5 22t-21.5 56z" />
<glyph unicode="&#xf0;" horiz-adv-x="1110" d="M66 485q0 99 37 190t108 165q69 70 158 107.5t186 37.5q56 0 104 -10t91 -31l71 -139q-61 52 -127.5 78t-138.5 26q-166 0 -283.5 -122.5t-117.5 -299.5q0 -178 116.5 -301t284.5 -123q80 0 152.5 31.5t130.5 89.5q60 62 92.5 140t32.5 161q0 75 -21.5 154t-64.5 162 l-207 399l-238 -80l-18 51l229 80l-92 176h90l78 -151l258 88l18 -53l-247 -86l141 -273q82 -157 117.5 -266.5t35.5 -200.5q0 -102 -36.5 -193t-106.5 -163t-158.5 -109.5t-185.5 -37.5q-98 0 -187 38t-159 109q-70 73 -106.5 164.5t-36.5 191.5z" />
<glyph unicode="&#xf1;" d="M119 0v547q0 201 107 319.5t286 118.5t286 -118.5t107 -319.5v-547h-82v573q0 150 -86.5 243t-224.5 93t-224.5 -93t-86.5 -243v-573h-82zM227 1147q23 84 69 127t114 43q20 0 37 -2.5t32 -7.5l86 -29q13 -4 26.5 -6t29.5 -2q32 0 57 17t45 52h72q-27 -86 -71.5 -129 t-109.5 -43q-15 0 -35 3.5t-40 9.5l-88 26q-13 4 -26.5 6t-29.5 2q-28 0 -53.5 -17.5t-42.5 -49.5h-72z" />
<glyph unicode="&#xf2;" horiz-adv-x="1110" d="M66 483q0 101 37 191.5t108 165.5q69 70 157.5 107.5t186.5 37.5t186.5 -37.5t157.5 -107.5q70 -72 106.5 -163t36.5 -194q0 -102 -36.5 -193t-106.5 -163q-69 -71 -157.5 -108t-186.5 -37t-186.5 37t-157.5 108q-71 74 -108 165t-37 191zM154 485q0 -178 116.5 -301 t284.5 -123q167 0 283 123.5t116 300.5q0 179 -116 301.5t-283 122.5q-168 0 -284.5 -123t-116.5 -301zM328 1432h133l215 -351h-80z" />
<glyph unicode="&#xf3;" horiz-adv-x="1110" d="M66 483q0 101 37 191.5t108 165.5q69 70 157.5 107.5t186.5 37.5t186.5 -37.5t157.5 -107.5q70 -72 106.5 -163t36.5 -194q0 -102 -36.5 -193t-106.5 -163q-69 -71 -157.5 -108t-186.5 -37t-186.5 37t-157.5 108q-71 74 -108 165t-37 191zM154 485q0 -178 116.5 -301 t284.5 -123q167 0 283 123.5t116 300.5q0 179 -116 301.5t-283 122.5q-168 0 -284.5 -123t-116.5 -301zM434 1081l215 351h133l-268 -351h-80z" />
<glyph unicode="&#xf4;" horiz-adv-x="1110" d="M66 483q0 101 37 191.5t108 165.5q69 70 157.5 107.5t186.5 37.5t186.5 -37.5t157.5 -107.5q70 -72 106.5 -163t36.5 -194q0 -102 -36.5 -193t-106.5 -163q-69 -71 -157.5 -108t-186.5 -37t-186.5 37t-157.5 108q-71 74 -108 165t-37 191zM154 485q0 -178 116.5 -301 t284.5 -123q167 0 283 123.5t116 300.5q0 179 -116 301.5t-283 122.5q-168 0 -284.5 -123t-116.5 -301zM281 1081l208 351h132l206 -351h-79l-193 277l-193 -277h-81z" />
<glyph unicode="&#xf5;" horiz-adv-x="1110" d="M66 483q0 101 37 191.5t108 165.5q69 70 157.5 107.5t186.5 37.5t186.5 -37.5t157.5 -107.5q70 -72 106.5 -163t36.5 -194q0 -102 -36.5 -193t-106.5 -163q-69 -71 -157.5 -108t-186.5 -37t-186.5 37t-157.5 108q-71 74 -108 165t-37 191zM154 485q0 -178 116.5 -301 t284.5 -123q167 0 283 123.5t116 300.5q0 179 -116 301.5t-283 122.5q-168 0 -284.5 -123t-116.5 -301zM270 1147q23 84 69 127t114 43q20 0 37 -2.5t32 -7.5l86 -29q13 -4 26.5 -6t29.5 -2q32 0 57 17t45 52h72q-27 -86 -71.5 -129t-109.5 -43q-15 0 -35 3.5t-40 9.5 l-88 26q-13 4 -26.5 6t-29.5 2q-28 0 -53.5 -17.5t-42.5 -49.5h-72z" />
<glyph unicode="&#xf6;" horiz-adv-x="1110" d="M66 483q0 101 37 191.5t108 165.5q69 70 157.5 107.5t186.5 37.5t186.5 -37.5t157.5 -107.5q70 -72 106.5 -163t36.5 -194q0 -102 -36.5 -193t-106.5 -163q-69 -71 -157.5 -108t-186.5 -37t-186.5 37t-157.5 108q-71 74 -108 165t-37 191zM154 485q0 -178 116.5 -301 t284.5 -123q167 0 283 123.5t116 300.5q0 179 -116 301.5t-283 122.5q-168 0 -284.5 -123t-116.5 -301zM305 1237q0 31 23 54.5t53 23.5q32 0 55 -23.5t23 -54.5q0 -34 -22 -56t-56 -22t-55 22t-21 56zM651 1237q0 31 23 54.5t53 23.5q32 0 55 -23.5t23 -54.5q0 -34 -22 -56 t-56 -22q-33 0 -54.5 22t-21.5 56z" />
<glyph unicode="&#xf7;" horiz-adv-x="1706" d="M254 569v82h1198v-82h-1198zM756 264q0 41 29 71t69 30q41 0 69.5 -29.5t28.5 -71.5q0 -40 -28.5 -69t-69.5 -29t-69.5 28.5t-28.5 69.5zM756 956q0 41 28.5 70t69.5 29t69.5 -28.5t28.5 -70.5q0 -40 -28.5 -70t-69.5 -30t-69.5 29.5t-28.5 70.5z" />
<glyph unicode="&#xf8;" horiz-adv-x="1110" d="M6 -20l174 180q-57 75 -85.5 156.5t-28.5 168.5q0 100 37 191.5t108 163.5q70 71 159 109t187 38q84 0 161.5 -29t149.5 -88l170 177l56 -56l-170 -178q58 -69 88 -153.5t30 -178.5t-33 -180.5t-96 -157.5q-70 -79 -161 -120t-197 -41q-92 0 -173.5 31t-148.5 91 l-172 -180zM154 489q0 -73 22 -141t66 -127l571 590q-60 51 -123.5 75.5t-132.5 24.5q-168 0 -285.5 -123t-117.5 -299zM293 164q55 -50 121 -76.5t139 -26.5q169 0 285 123.5t116 304.5q0 74 -21.5 139.5t-66.5 125.5z" />
<glyph unicode="&#xf9;" d="M119 420v547h82v-574q0 -149 86.5 -242.5t224.5 -93.5q137 0 223 93t86 243v574h84v-547q0 -202 -107 -320t-286 -118t-286 118t-107 320zM285 1432h133l215 -351h-80z" />
<glyph unicode="&#xfa;" d="M119 420v547h82v-574q0 -149 86.5 -242.5t224.5 -93.5q137 0 223 93t86 243v574h84v-547q0 -202 -107 -320t-286 -118t-286 118t-107 320zM391 1081l215 351h133l-268 -351h-80z" />
<glyph unicode="&#xfb;" d="M119 420v547h82v-574q0 -149 86.5 -242.5t224.5 -93.5q137 0 223 93t86 243v574h84v-547q0 -202 -107 -320t-286 -118t-286 118t-107 320zM238 1081l208 351h132l206 -351h-79l-193 277l-193 -277h-81z" />
<glyph unicode="&#xfc;" d="M119 420v547h82v-574q0 -149 86.5 -242.5t224.5 -93.5q137 0 223 93t86 243v574h84v-547q0 -202 -107 -320t-286 -118t-286 118t-107 320zM262 1237q0 31 23 54.5t53 23.5q32 0 55 -23.5t23 -54.5q0 -34 -22 -56t-56 -22t-55 22t-21 56zM608 1237q0 31 23 54.5t53 23.5 q32 0 55 -23.5t23 -54.5q0 -34 -22 -56t-56 -22q-33 0 -54.5 22t-21.5 56z" />
<glyph unicode="&#xfd;" d="M119 420v547h82v-574q0 -149 86.5 -242.5t224.5 -93.5q137 0 223 93t86 243v574h84v-547q0 -191 -90 -302t-262 -134v-420h-84v420q-174 26 -262 135.5t-88 300.5zM391 1081l215 351h133l-268 -351h-80z" />
<glyph unicode="&#xfe;" horiz-adv-x="1157" d="M119 -436v1868h84v-666q61 101 169 160t234 59q208 0 346 -142t138 -360q0 -102 -35 -192.5t-101 -161.5q-67 -72 -157 -109.5t-195 -37.5q-95 0 -178.5 32.5t-155.5 98.5v110q73 -82 155.5 -122t178.5 -40q174 0 288 120t114 304q0 182 -115.5 303t-286.5 121 q-181 0 -290 -128.5t-109 -346.5v-870h-84z" />
<glyph unicode="&#xff;" d="M119 420v547h82v-574q0 -149 86.5 -242.5t224.5 -93.5q137 0 223 93t86 243v574h84v-547q0 -191 -90 -302t-262 -134v-420h-84v420q-174 26 -262 135.5t-88 300.5zM262 1237q0 31 23 54.5t53 23.5q32 0 55 -23.5t23 -54.5q0 -34 -22 -56t-56 -22t-55 22t-21 56zM608 1237 q0 31 23 54.5t53 23.5q32 0 55 -23.5t23 -54.5q0 -34 -22 -56t-56 -22q-33 0 -54.5 22t-21.5 56z" />
<glyph unicode="&#x152;" horiz-adv-x="2464" d="M72 717q0 149 54 282.5t157 239.5q101 105 233 161t277 56q226 0 402.5 -125t270.5 -352q93 233 275.5 344t474.5 111q30 0 45 -0.5t29 -2.5l-1 -79q-15 1 -32.5 1.5t-52.5 0.5q-300 0 -474.5 -142t-216.5 -421h777v-80h-779q17 -308 195 -471.5t496 -163.5q27 0 81 3 l7 1v-80q-13 -1 -28.5 -1.5t-45.5 -0.5q-294 0 -477.5 111t-272.5 342q-94 -226 -271.5 -351t-401.5 -125q-145 0 -277 56.5t-233 161.5q-103 105 -157 239.5t-54 284.5zM166 719q0 -133 47.5 -252t138.5 -215q88 -92 201.5 -141.5t239.5 -49.5q125 0 238 49.5t202 143.5 q90 95 137 213.5t47 251.5t-46.5 251t-137.5 214q-89 93 -201.5 141.5t-238.5 48.5q-127 0 -240.5 -48.5t-200.5 -139.5q-91 -96 -138.5 -215t-47.5 -252z" />
<glyph unicode="&#x153;" horiz-adv-x="1993" d="M70 483q0 103 36.5 194t106.5 163q69 70 157.5 107.5t186.5 37.5q146 0 261 -75.5t183 -217.5q56 137 174.5 215t270.5 78q132 0 235 -60t179 -182l-674 -450l-41 65l600 400q-56 75 -131.5 114t-167.5 39q-170 0 -288 -123.5t-118 -302.5q0 -178 117 -301t285 -123 q165 0 276 113.5t123 296.5h88q-12 -217 -149 -353t-340 -136q-147 0 -265.5 79t-173.5 215q-68 -141 -184 -217.5t-260 -76.5q-66 0 -128.5 17t-115.5 50q-116 71 -179.5 184t-63.5 250zM156 485q0 -178 116.5 -301t284.5 -123q167 0 284 123.5t117 300.5q0 178 -117 302 t-284 124t-284 -124t-117 -302z" />
<glyph unicode="&#x178;" horiz-adv-x="1081" d="M115 1071v361h90v-336q0 -204 86.5 -312t249.5 -108t249.5 107.5t86.5 312.5v336h90v-361q0 -206 -99 -328.5t-282 -144.5v-598h-90v598q-185 25 -283 147t-98 326zM291 1720q0 31 23 54.5t53 23.5q32 0 55 -23.5t23 -54.5q0 -34 -22 -56t-56 -22t-55 22t-21 56z M637 1720q0 31 23 54.5t53 23.5q32 0 55 -23.5t23 -54.5q0 -34 -22 -56t-56 -22q-33 0 -54.5 22t-21.5 56z" />
<glyph unicode="&#x2c6;" d="M238 1081l208 351h132l206 -351h-79l-193 277l-193 -277h-81z" />
<glyph unicode="&#x2dc;" d="M227 1147q23 84 69 127t114 43q20 0 37 -2.5t32 -7.5l86 -29q13 -4 26.5 -6t29.5 -2q32 0 57 17t45 52h72q-27 -86 -71.5 -129t-109.5 -43q-15 0 -35 3.5t-40 9.5l-88 26q-13 4 -26.5 6t-29.5 2q-28 0 -53.5 -17.5t-42.5 -49.5h-72z" />
<glyph unicode="&#x2000;" horiz-adv-x="986" />
<glyph unicode="&#x2001;" horiz-adv-x="1972" />
<glyph unicode="&#x2002;" horiz-adv-x="986" />
<glyph unicode="&#x2003;" horiz-adv-x="1972" />
<glyph unicode="&#x2004;" horiz-adv-x="657" />
<glyph unicode="&#x2005;" horiz-adv-x="493" />
<glyph unicode="&#x2006;" horiz-adv-x="328" />
<glyph unicode="&#x2007;" horiz-adv-x="328" />
<glyph unicode="&#x2008;" horiz-adv-x="246" />
<glyph unicode="&#x2009;" horiz-adv-x="394" />
<glyph unicode="&#x200a;" horiz-adv-x="109" />
<glyph unicode="&#x2010;" horiz-adv-x="676" d="M141 455v82h394v-82h-394z" />
<glyph unicode="&#x2011;" horiz-adv-x="676" d="M141 455v82h394v-82h-394z" />
<glyph unicode="&#x2012;" horiz-adv-x="676" d="M141 455v82h394v-82h-394z" />
<glyph unicode="&#x2013;" d="M0 455v82h1024v-82h-1024z" />
<glyph unicode="&#x2014;" horiz-adv-x="2048" d="M0 455v82h2048v-82h-2048z" />
<glyph unicode="&#x2018;" horiz-adv-x="547" d="M188 1108l115 324h90l-92 -324h-113z" />
<glyph unicode="&#x2019;" horiz-adv-x="547" d="M201 1108l92 324h115l-115 -324h-92z" />
<glyph unicode="&#x201a;" horiz-adv-x="547" d="M135 -168l92 324h115l-115 -324h-92z" />
<glyph unicode="&#x201c;" horiz-adv-x="807" d="M188 1108l115 324h90l-92 -324h-113zM446 1108l115 324h92l-92 -324h-115z" />
<glyph unicode="&#x201d;" horiz-adv-x="807" d="M201 1108l92 324h115l-115 -324h-92zM461 1108l90 324h115l-115 -324h-90z" />
<glyph unicode="&#x201e;" horiz-adv-x="807" d="M135 -168l92 324h115l-115 -324h-92zM393 -168l92 324h115l-115 -324h-92z" />
<glyph unicode="&#x2022;" horiz-adv-x="1208" d="M307 762q0 123 87 209t210 86q122 0 208.5 -86.5t86.5 -208.5t-87.5 -209.5t-209.5 -87.5q-123 0 -209 87t-86 210z" />
<glyph unicode="&#x2026;" horiz-adv-x="2048" d="M265 68q0 32 22.5 53.5t54.5 21.5q33 0 54.5 -21.5t21.5 -53.5q0 -33 -22 -55.5t-54 -22.5t-54.5 22.5t-22.5 55.5zM947 68q0 32 22.5 53.5t54.5 21.5q33 0 54.5 -21.5t21.5 -53.5q0 -33 -22 -55.5t-54 -22.5t-54.5 22.5t-22.5 55.5zM1631 68q0 32 22.5 53.5t54.5 21.5 q33 0 54.5 -21.5t21.5 -53.5q0 -33 -22 -55.5t-54 -22.5t-54.5 22.5t-22.5 55.5z" />
<glyph unicode="&#x202f;" horiz-adv-x="394" />
<glyph unicode="&#x2039;" horiz-adv-x="559" d="M141 489l240 318h94l-237 -318l237 -317h-94z" />
<glyph unicode="&#x203a;" horiz-adv-x="559" d="M84 172l238 317l-238 318h94l240 -318l-240 -317h-94z" />
<glyph unicode="&#x205f;" horiz-adv-x="493" />
<glyph unicode="&#x2122;" horiz-adv-x="1706" d="M274 1403v51h420v-51h-174v-479h-67v479h-179zM825 924v530h101l174 -440l162 440h102v-530h-59v479l-181 -479h-49l-190 479v-479h-60z" />
<glyph unicode="&#x25fc;" horiz-adv-x="965" d="M0 0v965h965v-965h-965z" />
</font>
</defs>
</svg>
